<svg width="290" height="83" viewBox="0 0 290 83" fill="none" xmlns="http://www.w3.org/2000/svg">
<path fill-rule="evenodd" clip-rule="evenodd" d="M288.2 38.2C288.1 38.1 288.2 38.1 288.2 38.2H285.6L277 55.5H279.1L281.4 50.6H286.8L287.2 55.5H289.3H289.4L288.2 38.2ZM282.3 48.7L286.4 39.8L286.7 48.7H282.3Z" fill="white"/>
<path fill-rule="evenodd" clip-rule="evenodd" d="M278.2 41.8C278.2 42 278.2 42.3 278.1 42.5C278.1 42.7 278 43 278 43.3H276C276.1 42.9 276.1 42.4 276.1 42C276.1 41.4 276 40.8 275.6 40.3C275.2 39.8 274.4 39.6 273.7 39.6C272 39.6 271 40.8 270.3 42.2C269.7 43.5 269.3 45.1 269 46.5C268.9 47.3 268.7 48 268.5 48.8C268.4 49.4 268.3 50.1 268.3 50.8C268.3 51.5 268.4 52.4 268.7 53.1C269.1 53.7 269.8 54 270.5 54C271.6 54 272.5 53.6 273.1 52.6C273.8 51.7 274.2 50.2 274.5 49.1H276.4C276 50.7 275.3 52.7 274.2 54C273.1 55.3 271.7 55.8 270 55.8C268.7 55.8 267.5 55.5 266.7 54.4C266 53.5 265.8 52.2 265.8 51C265.8 50.3 265.9 49.6 265.9 48.9C266 48.1 266.2 47.3 266.3 46.5C266.6 45.2 266.9 43.8 267.5 42.5C268 41.3 268.7 40 269.8 39.1C270.9 38.1 272.2 37.7 273.7 37.7C274.8 37.7 275.9 38 276.7 38.8C278 39.7 278.2 40.8 278.2 41.8Z" fill="white"/>
<path fill-rule="evenodd" clip-rule="evenodd" d="M259.2 40L258 45.6H264.3L264 47.3H257.7L256.4 53.5H263.1L262.8 55.2H254.1H254L257.6 37.9H266.3L266 39.6H265.9L259.2 40Z" fill="white"/>
<path fill-rule="evenodd" clip-rule="evenodd" d="M244 45.3H250.5L252 38.1H253.9L250.3 55.4H248.4H248.3L250 47.1H243.5L241.8 55.4H239.9H239.8L243.4 38.1H243.5H245.4L244 45.3Z" fill="white"/>
<path fill-rule="evenodd" clip-rule="evenodd" d="M235.8 46.2C236.4 46.4 237 46.7 237.5 47.3C238 47.9 238.2 48.7 238.2 49.5C238.2 49.9 238.1 50.3 238.1 50.7C237.9 51.9 237.3 53 236.4 54C235.1 55.3 233.5 55.9 231.7 55.9C230.5 55.9 229.2 55.7 228.3 54.8C227.6 54 227.4 52.8 227.4 51.7C227.4 51.5 227.4 51.4 227.4 51.2C227.4 50.9 227.5 50.4 227.5 50.1H227.6H229.5H229.6C229.5 50.6 229.5 51.1 229.5 51.5C229.5 52.1 229.6 52.9 230.1 53.4C230.6 53.9 231.5 54 232.2 54C233.4 54 234.4 53.6 235.1 52.7C235.6 52.1 235.9 51.3 236.1 50.5C236.1 50.4 236.2 50.2 236.2 50.1C236.3 50 236.3 49.8 236.3 49.7C236.3 49.1 236.1 48.5 235.8 48C235.4 47.5 234.8 47.3 234.1 47.3H232.3H232.2L232.5 45.6H232.6H233.9C235.8 45.6 236.9 44.6 237.3 42.8C237.3 42.7 237.3 42.5 237.3 42.4C237.3 42.3 237.3 42.1 237.3 42C237.3 40.6 236.5 40 235.1 40C234.3 40 233.6 40.3 232.9 40.8C232.2 41.4 231.7 42.2 231.5 43.1H231.4H229.5C230 41.7 230.7 40.4 231.9 39.5C233 38.6 234.3 38.2 235.7 38.2C236.7 38.2 237.8 38.4 238.6 39.1C239.3 39.7 239.6 40.6 239.6 41.6C239.6 41.8 239.6 41.9 239.6 42.1C239.5 42.2 239.5 42.3 239.5 42.4C239.3 43.4 238.9 44.4 238.1 45.1C237.3 45.5 236.6 45.9 235.8 46.2Z" fill="white"/>
<path fill-rule="evenodd" clip-rule="evenodd" d="M214.8 53.6C214.9 53.3 215.1 53 215.2 52.7C215.4 52.4 215.6 52.1 215.7 51.8L224 38.1H224.1H226.9H227L223.4 55.4H223.3H221.4H221.3L224.2 41.6C224.3 41 224.4 40.4 224.5 39.8C224.4 40 224.3 40.2 224.2 40.5C224 40.9 223.7 41.4 223.5 41.8L215.2 55.4H212.4L216 38.1H216.1H218H218.1L215.1 52.2L214.8 53.6Z" fill="white"/>
<path fill-rule="evenodd" clip-rule="evenodd" d="M212.3 38.1H203.6C203.5 38.1 203.5 38.1 203.5 38.1L200 55.4H204.6C206 55.4 207.5 55.1 208.7 54.3C209.9 53.4 210.6 52 210.9 50.5C211 50 211 49.5 211 48.9C211 47.7 210.6 46.7 209.6 46.1C208.7 45.5 207.3 45.4 206.2 45.4H204L205.1 39.9H211.7L212.3 38.1ZM205.3 47.3C206 47.3 207.3 47.3 208 47.7C208.7 48 208.9 48.7 208.9 49.5C208.9 49.7 208.9 49.8 208.9 50C208.9 50.2 208.8 50.4 208.8 50.5C208.6 51.4 208.2 52.4 207.4 53C206.6 53.5 205.5 53.6 204.6 53.6H202.5L203.8 47.3H205.3Z" fill="white"/>
<path fill-rule="evenodd" clip-rule="evenodd" d="M194.1 38.1H189.5C188.1 38.1 186.6 38.4 185.4 39.2C184.2 40.1 183.5 41.5 183.2 43C183.1 43.5 183 44 183 44.5C183 45.3 183.2 46.1 183.7 46.7C184.1 47.2 184.8 47.6 185.4 47.8L180 55.3H180.1H182.2H182.3L187.6 48H190L188.5 55.2H188.6H190.5C190.6 55.2 190.6 55.2 190.6 55.2L194.1 38.1C194.2 38.1 194.2 38.1 194.1 38.1ZM190.4 46.3H188.8C188 46.3 186.9 46.3 186.2 45.9C185.5 45.6 185.3 44.9 185.3 44.2C185.3 43.9 185.3 43.5 185.4 43.1C185.6 42.2 185.9 41.2 186.8 40.7C187.6 40.2 188.7 40 189.7 40H191.8L190.4 46.3Z" fill="white"/>
<path fill-rule="evenodd" clip-rule="evenodd" d="M179.2 40H173.5L172.1 46.8C171.8 48.1 171.5 49.5 171.1 50.8C170.7 52 170.3 53.3 169.5 54.3C168.8 55.2 167.9 55.8 166.7 55.8C166.3 55.8 165.9 55.8 165.6 55.7C165.6 55.7 165.6 55.7 165.6 55.6L165.9 53.9C165.9 53.9 165.9 53.9 166 53.9H166.1C166.3 54 166.5 54 166.8 54C168.7 54 170.1 47.1 170.4 45.8L172 38.3H172.1H181.8H181.9L178.3 55.6H176H175.9L179.2 40Z" fill="white"/>
<path fill-rule="evenodd" clip-rule="evenodd" d="M165.1 53.6H163.8L167 38.2H166.9H157.7C157.6 38.2 157.6 38.2 157.6 38.2L156.7 42.6C156.3 44.7 155.8 47 155 49C154.4 50.6 153.6 52.3 152.5 53.7H151.4C151.3 53.7 151.3 53.7 151.3 53.7L150.1 59.4H150.2H152L152.8 55.4H162.6L161.8 59.4H163.6C163.7 59.4 163.7 59.4 163.7 59.4L164.9 53.7V53.6C165.2 53.6 165.2 53.6 165.1 53.6ZM161.7 53.6H154.8C156.6 50.9 157.7 47.5 158.4 44.4L159.3 39.9H164.5L161.7 53.6Z" fill="white"/>
<path fill-rule="evenodd" clip-rule="evenodd" d="M239.7 14.2C239.6 14.2 239.7 14.2 239.7 14.2H237.1C237 14.2 237 14.2 237 14.2L228.4 31.5H228.5H230.6L232.9 26.5999H238.3L238.7 31.5H240.8L239.7 14.2ZM233.9 24.6999L238 15.7999L238.3 24.6999H233.9Z" fill="white"/>
<path fill-rule="evenodd" clip-rule="evenodd" d="M221 22.8L229 14.1H231.4L224.4 21.3L228 31.3H225.8C225.7 31.3 225.7 31.3 225.7 31.3L222.9 22.9L220.5 25.3L219.2 31.3H219.1H217.1L220.7 14H220.8H222.7H222.8L221 22.8Z" fill="white"/>
<path fill-rule="evenodd" clip-rule="evenodd" d="M205.1 29.6999C205.2 29.3999 205.4 29.1 205.5 28.8C205.6 28.5 205.8 28.2 206 27.9L214.3 14.2H214.4H217.2H217.3L213.7 31.5H213.6H211.7L214.6 17.7C214.7 17.1 214.8 16.5 215 15.9C214.9 16.1 214.8 16.2999 214.7 16.5999C214.5 16.9999 214.3 17.5 214 17.9L205.7 31.5H205.6H202.8H202.7L206.3 14.2H206.4H208.3H208.4L205.4 28.3L205.1 29.6999Z" fill="white"/>
<path fill-rule="evenodd" clip-rule="evenodd" d="M192.7 21.4H199.2L200.7 14.2H200.8H202.7H202.8L199.2 31.5H199.1H197.2H197.1L198.8 23.1999H192.3L190.6 31.5H188.7L192.3 14.2H192.4H194.3H194.4L192.7 21.4Z" fill="white"/>
<path fill-rule="evenodd" clip-rule="evenodd" d="M181 22.5999L178.1 14.2H178.2H180.3L182.5 20.7999L187.5 14.2H187.6H189.7C189.8 14.2 189.8 14.2 189.8 14.2L183.4 22.5999L186.2 31.5H184C183.9 31.5 183.9 31.5 183.9 31.5L181.8 24.4L176.6 31.5H176.5H174.4C174.3 31.5 174.3 31.5 174.3 31.5L181 22.5999Z" fill="white"/>
<path fill-rule="evenodd" clip-rule="evenodd" d="M169.2 16L168 21.6H174.3H174.4L174.1 23.3H174H167.7L166.4 29.5H173.1H173.2L172.9 31.2H172.8H164H163.9L167.5 13.9H167.6H176.3H176.4L176 16H175.9H169.2Z" fill="white"/>
<path fill-rule="evenodd" clip-rule="evenodd" d="M160.8 16L157.5 31.5H157.4H155.5H155.4L158.6 16.1H154.2H154.1L154.5 14.4H154.6H165.5H165.6L165.3 16.1H165.2H160.8V16Z" fill="white"/>
<path fill-rule="evenodd" clip-rule="evenodd" d="M134 82.1H131.5H131.4V82L141 34.7H141.1H143.6H143.7L134 82.1Z" fill="white"/>
<path fill-rule="evenodd" clip-rule="evenodd" d="M132 67.5H126.7L139.6 0.900024H144.9L132 67.5C132.1 67.5 132.1 67.5 132 67.5Z" fill="#D51317"/>
<path fill-rule="evenodd" clip-rule="evenodd" d="M41.6 17.6H13L0.800049 63.2C0.800049 63.2 0.800048 63.2 0.900048 63.3C0.900048 63.3 0.900049 63.3 1.00005 63.3L10.6 49.1H20L19.8 51.8H32.7001L35.4001 41.6H34.2001C34.1001 41.6 34.1 41.6 34.1 41.6L33.9001 42.7H28.6L28.5 41.9H27.7001C27.3001 40.7 27 39.5 26.7001 38.2C26.6 37.5 25.6 33 26.2001 32.5L30 29.5C30 29.5 30 29.5 30 29.4L29.7001 28.6C29.7001 28.6 29.7 28.6 29.6 28.6C29.4 28.6 29.2001 28.8 29 28.8C28.2001 28.8 27.5 28.8 26.7001 28.8C26.4001 28.4 26.2001 28 26.7001 27.6C27.7001 27.6 28.7001 27.6 29.7001 27.6C30.1 28 30.5001 28.3 30.9001 28.8C30.9001 28.8 30.9 28.8 31 28.8L35.8 24.5L40.3 24.4L41.6 17.6C41.6 17.7 41.6 17.7 41.6 17.6ZM20.4001 42.8H14.4L21.6 31.9L20.4001 42.8Z" fill="#D51317"/>
<path fill-rule="evenodd" clip-rule="evenodd" d="M32.3 34.5H36.2C36.3 34.5 36.4 34.6 36.4 34.7V35.3C36.4 35.4 36.3 35.5 36.2 35.5H32.3C32.2 35.5 32.1 35.4 32.1 35.3V34.7C32 34.6 32.1 34.5 32.3 34.5Z" fill="#D51317"/>
<path fill-rule="evenodd" clip-rule="evenodd" d="M35.8 25.3C37.1 25.3 38.4 25.3 39.6 25.3C39.5 25.7 39.4 26.2 39.3 26.6H38.7001C38.5001 26.3 37.5 26.1 37.1 26.1C36.5 26.1 36 26.4 35.5 26.9C35.2 27.6 35.3 28.6 34.6 29.1C33.7 29.1 32.7 29.1 31.8 29.1C31.8 29.1 31.8 29.1 31.8 29C33 27.8 34.4 26.6 35.8 25.3C35.8 25.3 35.7 25.3 35.8 25.3Z" fill="#D51317"/>
<path fill-rule="evenodd" clip-rule="evenodd" d="M108.9 21.6H104.8H104.7L105.2 17.9H105.3H120.9H121L120.5 21.6H120.4H116.2L111.6 51.8H104.5L108.9 21.6Z" fill="white"/>
<path fill-rule="evenodd" clip-rule="evenodd" d="M97.9 17.8C97.8 17.7 97.9 17.7 97.9 17.8H86.6L77.7 51.8H84.6L86.6 42.8H89.8L89.2 51.8H89.3H96.2C96.3 51.8 96.3 51.8 96.3 51.8L97.9 17.8ZM90.1 38.9H87.5L91.3 22.1H91.5L90.1 38.9Z" fill="white"/>
<path fill-rule="evenodd" clip-rule="evenodd" d="M72 21.6L67.4 51.8001H60.3L65.5 17.8H79L78.5 21.5H72V21.6Z" fill="white"/>
<path fill-rule="evenodd" clip-rule="evenodd" d="M56.8001 17.8C56.8001 17.7 56.8001 17.7 56.8001 17.8H45.5001L36.6001 51.8H43.5001L45.5001 42.8H48.7001L48.1001 51.8H55.0001L56.8001 17.8ZM49.1001 38.9H46.5001L50.3001 22.1H50.5001L49.1001 38.9Z" fill="white"/>
<path fill-rule="evenodd" clip-rule="evenodd" d="M134 82.1H131.5L141.1 34.8H143.6L134 82.1Z" fill="white"/>
</svg>
