<svg width="35" height="35" viewBox="0 0 35 35" fill="none" xmlns="http://www.w3.org/2000/svg">
<path d="M16.9 24.0992H18.1C18.1 24.0992 18.5 24.0992 18.6 23.8992C18.7 23.6992 18.8 23.3992 18.8 23.3992C18.8 23.3992 18.8 21.7992 19.5 21.5992C20.2 21.3992 21.2 23.0992 22.1 23.7992C22.8 24.2992 23.4 24.1992 23.4 24.1992H26C26 24.1992 27.4 24.0992 26.7 22.9992C26.7 22.8992 26.3 22.1992 24.7 20.6992C23 19.1992 23.2 19.3992 25.3 16.6992C26.5 15.0992 27 14.0992 26.8 13.6992C26.7 13.2992 25.7 13.3992 25.7 13.3992H22.7C22.7 13.3992 22.5 13.3992 22.3 13.4992C22.1 13.5992 22 13.7992 22 13.7992C22 13.7992 21.8 14.9992 21.2 15.9992C19.9 18.1992 19.3 18.3992 19.1 18.1992C18.6 17.8992 18.7 16.8992 18.7 16.1992C18.7 13.9992 19 13.0992 18 12.7992C17.7 12.6992 17.4 12.6992 16.6 12.6992C15.5 12.6992 14.6 12.6992 14.1 12.9992C13.7 13.1992 13.5 13.4992 13.7 13.5992C13.9 13.5992 14.4 13.6992 14.6 13.9992C14.9 14.3992 14.9 15.3992 14.9 15.3992C14.9 15.3992 15.1 17.9992 14.5 18.2992C14.1 18.4992 13.5 18.0992 12.3 15.9992C11.7 14.8992 11.2 13.7992 11.2 13.7992C11.2 13.7992 11.1 13.5992 10.9 13.4992C10.7 13.3992 10.5 13.2992 10.5 13.2992H7.79996C7.79996 13.2992 7.39996 13.2992 7.19996 13.4992C7.09996 13.6992 7.19996 13.9992 7.19996 13.9992C7.19996 13.9992 9.39996 19.1992 11.9 21.7992C14.3 24.1992 16.9 24.0992 16.9 24.0992Z" fill="#D9D9D9"/>
</svg>
