<svg width="12" height="9" viewBox="0 0 12 9" fill="none" xmlns="http://www.w3.org/2000/svg">
<path d="M11.5764 0.281821C11.3317 0.0793191 11.014 -0.0207546 10.6932 0.0035947C10.3724 0.027944 10.0747 0.174724 9.8655 0.411673L4.64065 6.3326L1.82981 4.05891C1.71853 3.96616 1.58934 3.89577 1.44974 3.85183C1.31014 3.80788 1.16292 3.79127 1.01663 3.80294C0.870345 3.81462 0.727913 3.85435 0.597615 3.91983C0.467316 3.98532 0.351751 4.07524 0.257636 4.18438C0.163521 4.29353 0.0927339 4.41971 0.0493899 4.55559C0.00604599 4.69148 -0.00899025 4.83435 0.00515504 4.97592C0.0193003 5.11748 0.062345 5.25491 0.131787 5.38022C0.201229 5.50552 0.295683 5.6162 0.409659 5.70582L4.17552 8.75255C4.29164 8.84636 4.42645 8.916 4.57156 8.95712C4.71667 8.99823 4.86896 9.00995 5.01895 8.99154C5.17802 8.97963 5.3331 8.93744 5.47532 8.86739C5.61755 8.79734 5.74411 8.7008 5.84779 8.58329L11.7096 1.93908C11.9183 1.70187 12.0214 1.39409 11.9963 1.08329C11.9711 0.772496 11.8197 0.484072 11.5753 0.281315" fill="white"/>
</svg>
