<svg width="296" height="37" viewBox="0 0 296 37" fill="none" xmlns="http://www.w3.org/2000/svg">
<path fill-rule="evenodd" clip-rule="evenodd" d="M53.0886 10.2297H51.0269L51.3214 8.38965H58.9791L58.611 10.2297H56.5493L54.2667 25.1709H50.806L53.0886 10.2297ZM43.8846 18.9147L44.5473 10.5241H44.4L42.5592 18.9147H43.8846ZM42.1174 8.38965H47.5662L46.8299 25.1709H43.4428L43.7373 20.6812H42.1174L41.0866 25.1709H37.6995L42.1174 8.38965ZM31.7354 8.38965L29.1582 25.1709H32.6189L34.9015 10.2297H38.0677L38.3622 8.38965H31.7354ZM23.7095 18.9147L24.3722 10.5241H24.2249L22.3841 18.9147H23.7095ZM21.9423 8.38965H27.4647L26.7284 25.1709H23.2677L23.5622 20.6812H21.9423L20.9115 25.1709H17.5244L21.9423 8.38965Z" fill="white"/>
<path fill-rule="evenodd" clip-rule="evenodd" d="M18.8497 12.806C18.9233 12.5852 18.997 12.3644 18.997 12.1436C18.3343 12.1436 17.7452 12.1436 17.0825 12.1436C16.4199 12.7324 15.7572 13.3948 15.0945 13.9836C15.5363 13.9836 15.9781 13.9836 16.4935 13.9836C16.8616 13.7628 16.7144 13.3948 16.9353 12.9532C17.1562 12.7324 17.4507 12.5852 17.7452 12.5852C17.8925 12.5852 18.4079 12.7324 18.5552 12.8796H18.8497V12.806Z" fill="#E20613"/>
<path fill-rule="evenodd" clip-rule="evenodd" d="M15.4628 16.7065H17.3772C17.4509 16.7065 17.4509 16.7801 17.4509 16.7801V17.0746C17.4509 17.1482 17.3772 17.1482 17.3772 17.1482H15.4628C15.3892 17.1482 15.3892 17.0746 15.3892 17.0746V16.7801C15.3892 16.7065 15.3892 16.7065 15.4628 16.7065Z" fill="#E20613"/>
<path fill-rule="evenodd" clip-rule="evenodd" d="M9.64577 20.7546H6.55323L10.1612 15.1609L9.64577 20.7546ZM5.96418 8.31592L0 30.9117L4.71244 23.8459H9.42488L9.27761 25.1707H15.61L16.9353 20.1658H16.3463L16.199 20.7546H13.5483L13.4746 20.313H13.0328C12.5174 18.841 11.9284 15.8969 12.2965 15.6025L14.1373 14.1305L13.99 13.7625C13.9164 13.7625 13.7692 13.8361 13.6955 13.9097C13.2537 13.9097 12.9592 13.9097 12.5174 13.9097C12.2965 13.6889 12.2229 13.4681 12.5174 13.2472C13.0328 13.2472 13.4746 13.2472 13.99 13.2472C14.2109 13.4681 14.4318 13.6153 14.5791 13.8361L16.9353 11.7016L19.1443 11.628L19.9542 8.31592H5.96418Z" fill="#E20613"/>
<path fill-rule="evenodd" clip-rule="evenodd" d="M63.5444 31.1326H61.3354L67.226 -0.000976562H69.5086L63.5444 31.1326Z" fill="#E20613"/>
<path fill-rule="evenodd" clip-rule="evenodd" d="M64.5015 36.1375H63.4707L67.2996 17.001H68.404L64.5015 36.1375Z" fill="white"/>
<path d="M84.0139 8.53711L83.4248 11.334H79.6696L76.5034 25.6127H73.3372L76.4298 11.334H72.6746L73.2636 8.53711H84.0139Z" fill="white"/>
<path d="M81.8049 25.6127L85.5602 8.53711H94.6905L94.1014 11.334H88.2109L87.3273 15.1613H92.7024L92.1134 17.7373H86.8119L85.6338 22.9631H91.5243L90.9353 25.6127H81.8049Z" fill="white"/>
<path d="M98.1513 16.8541L96.016 8.53711H99.7712L100.728 14.1309L104.263 8.53711H107.944L101.907 16.8541L104.336 25.6127H100.728L99.624 19.283L95.6479 25.6127H92.1135L98.1513 16.8541Z" fill="white"/>
<path d="M105.883 25.6127L109.638 8.53711H112.878L111.405 15.1613H115.676L117.148 8.53711H120.388L116.633 25.6127H113.393L115.087 17.7373H110.816L109.122 25.6127H105.883Z" fill="white"/>
<path d="M129.96 25.6124L133.715 8.61035H130.255L122.744 20.9755C122.891 20.6075 123.112 20.0922 123.333 19.4298C123.554 18.7674 123.775 18.0314 123.922 17.2954C124.143 16.5594 124.29 15.7497 124.511 15.0137L125.91 8.61035H122.891L119.136 25.6124H122.597L130.034 13.2473C129.445 14.5721 128.856 16.5594 128.34 19.1354L126.941 25.5388H129.96V25.6124Z" fill="white"/>
<path d="M132.316 25.6127L136.072 8.53711H139.311L137.692 15.9709L143.214 8.53711H146.896L140.931 15.9709L143.288 25.6127H139.68L138.354 18.7678L136.661 20.4606L135.556 25.6127H132.316Z" fill="white"/>
<path d="M143.877 25.6124L151.976 8.61035H156.32V25.6124H152.86L153.007 21.1963H149.325L147.337 25.6124H143.877ZM150.283 18.6202H153.154L153.596 10.6712L150.283 18.6202Z" fill="white"/>
<path d="M164.346 22.9631C164.788 22.3007 165.23 21.6382 165.524 21.0494C165.819 20.4606 166.113 19.8718 166.408 19.2094C166.702 18.547 166.923 17.8109 167.144 16.9277C167.365 16.0445 167.66 15.0141 167.881 13.8364L169.059 8.53711H178.704L175.538 22.9631H176.569L175.244 28.9984H172.151L172.888 25.6127H165.819L165.083 28.9984H161.99L163.315 22.9631H164.346ZM174.949 11.1868H171.709L170.826 15.0141C170.384 16.8541 169.942 18.3998 169.5 19.5038C168.985 20.6814 168.396 21.7854 167.586 22.9631H172.372L174.949 11.1868Z" fill="white"/>
<path d="M183.27 8.53711H193.136L189.381 25.5391H186.141L189.307 11.1132H185.847L184.374 17.6637C183.932 19.5774 183.49 21.123 182.975 22.3743C182.46 23.5519 181.871 24.4351 181.208 25.0239C180.545 25.6127 179.735 25.9072 178.852 25.9072C178.042 25.9072 177.453 25.8336 176.937 25.6863L177.453 23.3311C177.674 23.4047 178.042 23.4783 178.484 23.4783C178.778 23.4783 178.999 23.4047 179.22 23.2575C179.441 23.1103 179.588 22.8159 179.809 22.3743C180.03 21.9327 180.251 21.2702 180.472 20.387C180.692 19.5038 180.987 18.2526 181.355 16.7069L183.27 8.53711Z" fill="white"/>
<path d="M202.193 25.6124L205.948 8.61035H199.69C198.806 8.61035 197.996 8.83116 197.186 9.27277C196.45 9.71438 195.787 10.3032 195.272 11.0392C194.756 11.7752 194.388 12.6585 194.167 13.5417C194.02 14.2777 193.946 14.9401 194.02 15.5289C194.094 16.1177 194.314 16.7066 194.609 17.1482C194.904 17.6634 195.272 17.9578 195.787 18.2522L190.854 25.5388H194.388L198.806 18.6202H200.426L198.88 25.5388H202.193V25.6124ZM200.5 11.1128H202.119L201.015 16.1913H199.395C197.775 16.1913 197.186 15.3081 197.554 13.6153C197.922 11.9224 198.953 11.1128 200.5 11.1128Z" fill="white"/>
<path d="M215.373 17.8842L214.195 23.1099H216.036C217.287 23.1099 218.171 22.2267 218.539 20.4603C218.686 19.6506 218.686 18.9882 218.466 18.5466C218.245 18.105 217.803 17.8842 217.214 17.8842H215.373ZM216.698 25.6124H210.44L214.195 8.61035H223.252L222.736 11.0392H216.919L215.962 15.3817H218.686C219.349 15.3817 219.865 15.5289 220.38 15.7497C220.895 16.0441 221.264 16.3385 221.484 16.8538C221.779 17.2954 221.926 17.8106 222 18.3994C222.074 18.9882 222.074 19.577 221.926 20.1658C221.558 21.8587 220.895 23.1835 220.012 24.1404C219.055 25.0972 217.95 25.6124 216.698 25.6124Z" fill="white"/>
<path d="M233.56 25.6124L237.315 8.61035H233.855L226.344 20.9755C226.492 20.6075 226.712 20.0922 226.933 19.4298C227.154 18.7674 227.375 18.0314 227.522 17.2954C227.743 16.5594 227.891 15.7497 228.038 15.0137L229.437 8.61035H226.492L222.736 25.6124H226.197L233.634 13.2473C233.045 14.5721 232.456 16.5594 231.94 19.1354L230.541 25.5388H233.56V25.6124Z" fill="white"/>
<path d="M242.175 17.8107H241.512L242.028 15.3818H242.691C243.353 15.3818 243.869 15.2346 244.31 14.8666C244.752 14.4986 245.12 13.9834 245.268 13.2474C245.415 12.585 245.415 11.9961 245.194 11.5545C245.047 11.1129 244.605 10.8921 243.942 10.8921C243.353 10.8921 242.764 11.1129 242.322 11.6281C241.881 12.1433 241.586 12.7322 241.365 13.5418H238.199C238.42 12.585 238.788 11.6281 239.377 10.8921C239.966 10.0825 240.702 9.49368 241.512 9.05207C242.396 8.61046 243.353 8.38965 244.384 8.38965C245.194 8.38965 246.004 8.53685 246.74 8.83126C247.477 9.12567 247.992 9.64088 248.36 10.3033C248.728 10.9657 248.802 11.8489 248.507 12.953C248.36 13.5418 248.139 14.057 247.845 14.5722C247.477 15.0874 247.108 15.529 246.593 15.897C246.078 16.265 245.636 16.4859 245.047 16.6331C245.857 16.8539 246.519 17.3691 246.814 18.1051C247.182 18.8411 247.182 19.7979 246.961 21.0492C246.74 22.1532 246.299 23.11 245.709 23.846C245.12 24.5821 244.384 25.1709 243.501 25.5389C242.617 25.9069 241.66 26.1277 240.555 26.1277C239.598 26.1277 238.714 25.9805 237.978 25.6125C237.242 25.3181 236.726 24.7293 236.358 23.9932C236.064 23.2572 235.99 22.3004 236.211 21.1228H239.377C239.009 22.6684 239.524 23.478 240.923 23.478C242.322 23.478 243.28 22.5212 243.648 20.6812C243.869 19.7243 243.795 19.0619 243.501 18.6203C243.427 18.0315 242.911 17.8107 242.175 17.8107Z" fill="white"/>
<path d="M248.139 25.6127L251.895 8.53711H255.134L253.662 15.1613H257.932L259.405 8.53711H262.645L258.816 25.6127H255.65L257.343 17.7373H253.073L251.379 25.6127H248.139Z" fill="white"/>
<path d="M261.319 25.6127L265.075 8.53711H274.205L273.616 11.334H267.725L266.842 15.1613H272.217L271.628 17.7373H266.326L265.148 22.9631H271.039L270.45 25.6127H261.319Z" fill="white"/>
<path d="M281.863 14.1305L281.936 13.7625C282.157 12.732 282.157 11.9224 282.01 11.5544C281.789 11.1128 281.347 10.892 280.684 10.892C280.022 10.892 279.433 11.1128 279.065 11.5544C278.696 11.996 278.328 12.732 278.107 13.7625L276.635 20.4602C276.414 21.5643 276.34 22.3003 276.561 22.7419C276.782 23.1835 277.224 23.4043 277.886 23.4043C278.549 23.4043 279.065 23.1835 279.506 22.7419C279.948 22.3003 280.243 21.5643 280.464 20.4602L280.684 19.577H283.924L283.777 20.3866C283.556 21.4907 283.188 22.4475 282.672 23.3307C282.157 24.1403 281.494 24.8763 280.611 25.318C279.727 25.8332 278.623 26.054 277.371 26.054C275.383 26.054 274.131 25.5388 273.616 24.5083C273.1 23.4779 272.953 22.0795 273.395 20.3866L274.794 14.2041C275.236 12.2168 275.972 10.7448 277.076 9.78796C278.181 8.83113 279.58 8.31592 281.347 8.31592C282.452 8.31592 283.335 8.53672 283.998 8.90473C284.661 9.27274 285.102 9.86156 285.397 10.6712C285.618 11.4072 285.618 12.364 285.397 13.3944L285.25 14.2041H281.863V14.1305Z" fill="white"/>
<path d="M283.556 25.6124L291.656 8.61035H296V25.6124H292.539L292.686 21.1963H289.005L287.017 25.6124H283.556ZM289.962 18.6202H292.834L293.276 10.6712L289.962 18.6202Z" fill="white"/>
</svg>
