<svg width="190" height="24" viewBox="0 0 190 24" fill="none" xmlns="http://www.w3.org/2000/svg">
<path fill-rule="evenodd" clip-rule="evenodd" d="M34.0771 6.56698H32.7538L32.9428 5.38586H37.8582L37.6219 6.56698H36.2985L34.8334 16.1576H32.612L34.0771 6.56698ZM28.1692 12.1418L28.5945 6.75595H28.5L27.3184 12.1418H28.1692ZM27.0348 5.38586H30.5324L30.0597 16.1576H27.8856L28.0746 13.2757H27.0348L26.3732 16.1576H24.199L27.0348 5.38586ZM20.3707 5.38586L18.7164 16.1576H20.9378L22.403 6.56698H24.4353L24.6244 5.38586H20.3707ZM15.2189 12.1418L15.6443 6.75595H15.5498L14.3682 12.1418H15.2189ZM14.0846 5.38586H17.6294L17.1567 16.1576H14.9353L15.1244 13.2757H14.0846L13.4229 16.1576H11.2488L14.0846 5.38586Z" fill="white"/>
<path fill-rule="evenodd" clip-rule="evenodd" d="M12.0997 8.22049C12.1469 8.07875 12.1942 7.93702 12.1942 7.79529C11.7688 7.79529 11.3907 7.79529 10.9653 7.79529C10.54 8.17324 10.1146 8.59844 9.68921 8.9764C9.97279 8.9764 10.2564 8.9764 10.5872 8.9764C10.8235 8.83467 10.729 8.59844 10.8708 8.31498C11.0126 8.17324 11.2016 8.07875 11.3907 8.07875C11.4852 8.07875 11.8161 8.17324 11.9106 8.26773H12.0997V8.22049Z" fill="#E20613"/>
<path fill-rule="evenodd" clip-rule="evenodd" d="M9.92544 10.7245H11.1543C11.2016 10.7245 11.2016 10.7717 11.2016 10.7717V10.9607C11.2016 11.008 11.1543 11.008 11.1543 11.008H9.92544C9.87817 11.008 9.87817 10.9607 9.87817 10.9607V10.7717C9.87817 10.7245 9.87817 10.7245 9.92544 10.7245Z" fill="#E20613"/>
<path fill-rule="evenodd" clip-rule="evenodd" d="M6.19154 13.3229H4.20647L6.52239 9.73236L6.19154 13.3229ZM3.82836 5.33862L0 19.8427L3.02488 15.3072H6.04975L5.95522 16.1576H10.0199L10.8706 12.945H10.4925L10.398 13.3229H8.69652L8.64925 13.0395H8.36567C8.03483 12.0946 7.65672 10.2048 7.89304 10.0158L9.07463 9.07093L8.9801 8.83471C8.93284 8.83471 8.83831 8.88196 8.79105 8.9292C8.50746 8.9292 8.31841 8.9292 8.03483 8.9292C7.89303 8.78747 7.84577 8.64573 8.03483 8.504C8.36567 8.504 8.64925 8.504 8.9801 8.504C9.12189 8.64573 9.26368 8.74022 9.35821 8.88196L10.8706 7.51187L12.2886 7.46462L12.8085 5.33862H3.82836Z" fill="#E20613"/>
<path fill-rule="evenodd" clip-rule="evenodd" d="M40.7885 19.9844H39.3706L43.1517 0H44.6169L40.7885 19.9844Z" fill="#E20613"/>
<path fill-rule="evenodd" clip-rule="evenodd" d="M41.4029 23.197H40.7412L43.1989 10.9135H43.9079L41.4029 23.197Z" fill="white"/>
<path d="M53.9278 5.48047L53.5497 7.27576H51.1392L49.1069 16.4412H47.0745L49.0596 7.27576H46.6492L47.0273 5.48047H53.9278Z" fill="white"/>
<path d="M52.5098 16.4412L54.9202 5.48047H60.7809L60.4028 7.27576H56.6217L56.0545 9.73247H59.5048L59.1267 11.386H55.7237L54.9675 14.7404H58.7486L58.3705 16.4412H52.5098Z" fill="white"/>
<path d="M63.0023 10.8191L61.6317 5.48047H64.0421L64.6566 9.07105L66.9252 5.48047H69.2884L65.4128 10.8191L66.9725 16.4412H64.6566L63.9476 12.3782L61.3954 16.4412H59.1267L63.0023 10.8191Z" fill="white"/>
<path d="M67.9653 16.4412L70.3758 5.48047H72.4554L71.5101 9.73247H74.2514L75.1967 5.48047H77.2763L74.8658 16.4412H72.7862L73.8733 11.386H71.132L70.0449 16.4412H67.9653Z" fill="white"/>
<path d="M83.4204 16.4412L85.8309 5.52771H83.6095L78.7886 13.4648C78.8831 13.2286 79.0249 12.8978 79.1667 12.4726C79.3085 12.0474 79.4503 11.575 79.5448 11.1026C79.6866 10.6301 79.7811 10.1104 79.9229 9.63798L80.8209 5.52771H78.8831L76.4727 16.4412H78.694L83.4677 8.50411C83.0896 9.35451 82.7115 10.6301 82.3806 12.2837L81.4826 16.3939H83.4204V16.4412Z" fill="white"/>
<path d="M84.9329 16.4412L87.3433 5.48047H89.4229L88.3831 10.2522L91.9279 5.48047H94.2911L90.4627 10.2522L91.9751 16.4412H89.6592L88.8085 12.0474L87.7214 13.1341L87.0125 16.4412H84.9329Z" fill="white"/>
<path d="M92.3533 16.4412L97.5523 5.52771H100.341V16.4412H98.1194L98.214 13.6065H95.8508L94.5747 16.4412H92.3533ZM96.4652 11.953H98.3085L98.5921 6.85056L96.4652 11.953Z" fill="white"/>
<path d="M105.492 14.7404C105.776 14.3152 106.06 13.89 106.249 13.512C106.438 13.1341 106.627 12.7561 106.816 12.3309C107.005 11.9057 107.147 11.4333 107.288 10.8663C107.43 10.2994 107.619 9.63798 107.761 8.88207L108.517 5.48047H114.709L112.677 14.7404H113.338L112.487 18.6144H110.502L110.975 16.4412H106.438L105.965 18.6144H103.98L104.831 14.7404H105.492ZM112.298 7.18127H110.219L109.652 9.63798C109.368 10.8191 109.084 11.8112 108.801 12.5199C108.47 13.2758 108.092 13.9845 107.572 14.7404H110.644L112.298 7.18127Z" fill="white"/>
<path d="M117.639 5.48047H123.973L121.562 16.3939H119.483L121.515 7.13402H119.294L118.348 11.3388C118.065 12.5671 117.781 13.5593 117.45 14.3624C117.119 15.1183 116.741 15.6853 116.316 16.0632C115.891 16.4412 115.371 16.6302 114.804 16.6302C114.284 16.6302 113.906 16.5829 113.575 16.4884L113.906 14.9766C114.047 15.0238 114.284 15.0711 114.567 15.0711C114.756 15.0711 114.898 15.0238 115.04 14.9294C115.182 14.8349 115.276 14.6459 115.418 14.3624C115.56 14.079 115.702 13.6538 115.843 13.0868C115.985 12.5199 116.174 11.7167 116.411 10.7246L117.639 5.48047Z" fill="white"/>
<path d="M129.786 16.4412L132.197 5.52771H128.179C127.612 5.52771 127.092 5.66944 126.572 5.95291C126.1 6.23638 125.674 6.61433 125.343 7.08678C125.013 7.55922 124.776 8.12615 124.634 8.69309C124.54 9.16553 124.493 9.59073 124.54 9.96869C124.587 10.3466 124.729 10.7246 124.918 11.0081C125.107 11.3388 125.343 11.5278 125.674 11.7167L122.508 16.3939H124.776L127.612 11.953H128.652L127.659 16.3939H129.786V16.4412ZM128.699 7.13402H129.739L129.03 10.3939H127.99C126.95 10.3939 126.572 9.82696 126.809 8.74033C127.045 7.65371 127.707 7.13402 128.699 7.13402Z" fill="white"/>
<path d="M138.246 11.4805L137.49 14.8349H138.672C139.475 14.8349 140.042 14.2679 140.279 13.1341C140.373 12.6144 140.373 12.1892 140.231 11.9057C140.09 11.6222 139.806 11.4805 139.428 11.4805H138.246ZM139.097 16.4412H135.08L137.49 5.52771H143.303L142.973 7.08678H139.239L138.624 9.8742H140.373C140.798 9.8742 141.129 9.96869 141.46 10.1104C141.791 10.2994 142.027 10.4884 142.169 10.8191C142.358 11.1026 142.453 11.4333 142.5 11.8112C142.547 12.1892 142.547 12.5671 142.453 12.9451C142.216 14.0317 141.791 14.8821 141.224 15.4963C140.609 16.1105 139.9 16.4412 139.097 16.4412Z" fill="white"/>
<path d="M149.92 16.4412L152.331 5.52771H150.109L145.288 13.4648C145.383 13.2286 145.525 12.8978 145.666 12.4726C145.808 12.0474 145.95 11.575 146.045 11.1026C146.186 10.6301 146.281 10.1104 146.375 9.63798L147.273 5.52771H145.383L142.972 16.4412H145.194L149.967 8.50411C149.589 9.35451 149.211 10.6301 148.88 12.2837L147.982 16.3939H149.92V16.4412Z" fill="white"/>
<path d="M155.45 11.4332H155.025L155.356 9.87409H155.781C156.206 9.87409 156.537 9.7796 156.821 9.54338C157.104 9.30715 157.341 8.97644 157.435 8.504C157.53 8.0788 157.53 7.70084 157.388 7.41738C157.293 7.13391 157.01 6.99218 156.584 6.99218C156.206 6.99218 155.828 7.13391 155.545 7.46462C155.261 7.79533 155.072 8.17329 154.93 8.69298H152.898C153.04 8.0788 153.276 7.46462 153.654 6.99218C154.032 6.47249 154.505 6.09453 155.025 5.81107C155.592 5.5276 156.206 5.38586 156.868 5.38586C157.388 5.38586 157.908 5.48035 158.38 5.66933C158.853 5.85831 159.184 6.18902 159.42 6.61422C159.657 7.03942 159.704 7.60635 159.515 8.31502C159.42 8.69298 159.278 9.02369 159.089 9.3544C158.853 9.68511 158.617 9.96858 158.286 10.2048C157.955 10.441 157.672 10.5828 157.293 10.6772C157.813 10.819 158.239 11.1497 158.428 11.6221C158.664 12.0946 158.664 12.7088 158.522 13.5119C158.38 14.2206 158.097 14.8348 157.719 15.3072C157.341 15.7796 156.868 16.1576 156.301 16.3938C155.734 16.63 155.119 16.7718 154.41 16.7718C153.796 16.7718 153.229 16.6773 152.756 16.4411C152.283 16.2521 151.953 15.8741 151.716 15.4017C151.527 14.9292 151.48 14.3151 151.622 13.5592H153.654C153.418 14.5513 153.749 15.071 154.647 15.071C155.545 15.071 156.159 14.4568 156.395 13.2757C156.537 12.6615 156.49 12.2363 156.301 11.9528C156.254 11.5749 155.923 11.4332 155.45 11.4332Z" fill="white"/>
<path d="M159.279 16.4412L161.689 5.48047H163.769L162.823 9.73247H165.565L166.51 5.48047H168.59L166.132 16.4412H164.099L165.187 11.386H162.445L161.358 16.4412H159.279Z" fill="white"/>
<path d="M167.739 16.4412L170.149 5.48047H176.01L175.632 7.27576H171.851L171.284 9.73247H174.734L174.356 11.386H170.953L170.196 14.7404H173.978L173.599 16.4412H167.739Z" fill="white"/>
<path d="M180.925 9.07093L180.973 8.83471C181.114 8.17329 181.114 7.6536 181.02 7.41738C180.878 7.13391 180.594 6.99218 180.169 6.99218C179.744 6.99218 179.366 7.13391 179.129 7.41738C178.893 7.70084 178.657 8.17329 178.515 8.83471L177.57 13.134C177.428 13.8426 177.38 14.3151 177.522 14.5985C177.664 14.882 177.948 15.0237 178.373 15.0237C178.798 15.0237 179.129 14.882 179.413 14.5985C179.696 14.3151 179.885 13.8426 180.027 13.134L180.169 12.567H182.249L182.154 13.0867C182.012 13.7954 181.776 14.4096 181.445 14.9765C181.114 15.4962 180.689 15.9686 180.122 16.2521C179.555 16.5828 178.846 16.7245 178.042 16.7245C176.766 16.7245 175.963 16.3938 175.632 15.7324C175.301 15.071 175.206 14.1733 175.49 13.0867L176.388 9.11818C176.672 7.84258 177.144 6.89769 177.853 6.28351C178.562 5.66933 179.46 5.33862 180.594 5.33862C181.303 5.33862 181.871 5.48036 182.296 5.71658C182.721 5.9528 183.005 6.33076 183.194 6.85045C183.336 7.32289 183.336 7.93707 183.194 8.59849L183.099 9.11818H180.925V9.07093Z" fill="white"/>
<path d="M182.012 16.4412L187.211 5.52771H190V16.4412H187.779L187.873 13.6065H185.51L184.234 16.4412H182.012ZM186.124 11.953H187.968L188.251 6.85056L186.124 11.953Z" fill="white"/>
</svg>
