<svg width="12" height="16" viewBox="0 0 12 16" fill="none" xmlns="http://www.w3.org/2000/svg">
<path d="M6.00009 16C5.96009 15.96 5.96009 15.96 5.96009 15.92C4.72009 14 3.56009 12.04 2.52009 9.99996C2.00009 9.03996 1.56009 8.07997 1.20009 7.07997C1.04009 6.63997 0.920094 6.19997 0.880094 5.75997C0.840094 5.39997 0.880094 5.07997 0.920094 4.71997C1.00009 3.91997 1.20009 3.11997 1.64009 2.43997C2.24009 1.35997 3.16009 0.679966 4.32009 0.319966C5.64009 -0.080034 6.96009 -0.040034 8.24009 0.519966C9.60009 1.07997 10.4801 2.15997 10.8801 3.59997C11.0801 4.23997 11.1201 4.83997 11.1201 5.51997C11.1201 5.99997 11.0001 6.43997 10.8401 6.87997C10.5201 7.87997 10.0401 8.87996 9.56009 9.79996C8.56009 11.8 7.40009 13.68 6.24009 15.56C6.20009 15.72 6.08009 15.84 6.00009 16ZM7.76009 5.27997C7.76009 4.27997 6.96009 3.51997 6.00009 3.51997C5.00009 3.51997 4.24009 4.31997 4.20009 5.27997C4.20009 6.27997 5.00009 7.07997 6.00009 7.07997C7.00009 7.07997 7.76009 6.27997 7.76009 5.27997Z" fill="white"/>
</svg>
