<svg width="35" height="35" viewBox="0 0 35 35" fill="none" xmlns="http://www.w3.org/2000/svg">
<path d="M23.8999 11.1991L8.3999 17.1991C7.8999 17.3991 7.8999 18.0991 8.3999 18.2991L12.2999 19.4991L13.7999 24.1991C13.9999 24.6991 14.5999 24.7991 14.8999 24.4991L16.8999 22.3991L20.8999 25.2991C21.3999 25.6991 22.0999 25.3991 22.1999 24.7991L24.9999 12.0991C25.0999 11.4991 24.4999 10.9991 23.8999 11.1991ZM21.8999 13.9991L14.6999 20.3991C14.5999 20.4991 14.5999 20.5991 14.5999 20.5991L14.2999 23.0991C14.2999 23.1991 14.1999 23.1991 14.1999 23.0991L13.0999 19.3991C12.9999 19.1991 13.0999 18.9991 13.2999 18.9991L21.7999 13.6991C21.8999 13.5991 22.0999 13.8991 21.8999 13.9991Z" fill="#D9D9D9"/>
<path d="M17.5 34.999C7.9 34.999 0 27.099 0 17.499C0 7.89902 7.9 -0.000976562 17.5 -0.000976562C27.1 -0.000976562 35 7.89902 35 17.499C35 27.099 27.1 34.999 17.5 34.999ZM17.5 0.999023C8.4 0.999023 1 8.39902 1 17.499C1 26.599 8.4 33.999 17.5 33.999C26.6 33.999 34 26.599 34 17.499C34 8.39902 26.6 0.999023 17.5 0.999023Z" fill="#D9D9D9"/>
</svg>
