<svg width="35" height="35" viewBox="0 0 35 35" fill="none" xmlns="http://www.w3.org/2000/svg">
<g clip-path="url(#clip0_1_1113)">
<path d="M21.6999 20.8C21.1999 20.3 20.4999 20.3 19.9999 20.8C19.5999 21.2 19.1999 21.6 18.7999 22C18.6999 22.1 18.5999 22.1 18.4999 22.1C18.2999 22 17.9999 21.9 17.6999 21.7C16.4999 21 15.5999 20 14.6999 19C14.2999 18.5 13.8999 17.9 13.6999 17.3C13.5999 17.2 13.5999 17.1 13.7999 17C14.1999 16.6 14.5999 16.2 14.9999 15.8C15.4999 15.3 15.4999 14.6 14.9999 14C14.6999 13.7 14.3999 13.4 13.9999 13C13.6999 12.7 13.2999 12.3 12.9999 12C12.4999 11.5 11.7999 11.5 11.2999 12C10.8999 12.4 10.4999 12.8 10.0999 13.2C9.69989 13.6 9.49989 14 9.49989 14.5C9.39989 15.3 9.59989 16.1 9.89989 16.9C10.4999 18.5 11.3999 19.9 12.4999 21.2C13.9999 23 15.7999 24.3 17.7999 25.3C18.7999 25.7 19.6999 26.1 20.7999 26.2C21.4999 26.3 22.0999 26.1 22.6999 25.5C23.0999 25.1 23.3999 24.8 23.7999 24.4C24.2999 23.9 24.2999 23.2 23.7999 22.6C22.8999 22.1 22.1999 21.5 21.6999 20.8Z" fill="#D9D9D9"/>
<path d="M20.9999 18.1003L22.2999 17.9003C22.0999 16.8003 21.5999 15.8003 20.6999 14.9003C19.7999 14.0003 18.7999 13.5003 17.4999 13.3003L17.3999 14.6003C18.3999 14.7003 19.1999 15.1003 19.7999 15.8003C20.3999 16.4003 20.7999 17.2003 20.9999 18.1003Z" fill="#D9D9D9"/>
<path d="M22.9 12.7001C21.5 11.3001 19.6 10.3001 17.6 10.1001L17.5 11.4001C19.2 11.6001 20.8 12.4001 22 13.7001C23.2 14.9001 23.9 16.4001 24.2 18.0001L25.5 17.8001C25.2 15.8001 24.3 14.1001 22.9 12.7001Z" fill="#D9D9D9"/>
</g>
</svg>
